<svg width="75" height="73" viewBox="0 0 75 73" fill="none" xmlns="http://www.w3.org/2000/svg">
<path d="M34.8954 5.00837L9.31029 5.89205C8.65297 5.91344 8.12518 6.44099 8.10373 7.0979L7.21961 32.6694C7.20753 32.9947 7.32322 33.3118 7.54197 33.5531L42.8344 72.3429C43.3126 72.8703 44.1349 72.8913 44.6395 72.389L74.6362 42.4082C75.1387 41.9038 75.1177 41.0821 74.59 40.6041L35.7704 5.33054C35.5313 5.11419 35.2178 4.99872 34.8954 5.00837ZM34.4718 7.52131L71.9469 41.5705L43.8014 69.6918L9.7339 32.2459L10.5628 8.34978L34.4718 7.52131Z" fill="white"/>
<path d="M22.5824 14.1387C20.9833 14.1387 19.3837 14.7399 18.1708 15.9521C15.7451 18.3765 15.7451 22.3461 18.1708 24.7704C20.5966 27.1949 24.5682 27.1949 26.9939 24.7704C29.4196 22.3461 29.4196 18.3765 26.9939 15.9521C25.7811 14.7399 24.1815 14.1387 22.5824 14.1387ZM19.9392 17.7194C21.4113 16.2481 23.7627 16.2481 25.2348 17.7194C26.707 19.1908 26.707 21.5409 25.2348 23.0123C23.7627 24.4836 21.4113 24.4836 19.9392 23.0123C18.467 21.5409 18.467 19.1908 19.9392 17.7194ZM37.5577 30.5696C37.234 30.5795 36.9269 30.7148 36.7012 30.947L34.9329 32.7052C34.9329 32.7052 34.3008 33.3209 33.9751 34.2976C33.6493 35.2744 33.7566 36.8223 34.9329 37.998C36.1092 39.1736 37.658 39.2901 38.6353 38.9645C39.6126 38.639 40.2286 37.998 40.2286 37.998C40.2286 37.998 40.4997 37.7543 40.8457 37.639C41.1917 37.5238 41.4088 37.4102 41.9969 37.998C42.585 38.5859 42.4715 38.8028 42.3561 39.1486C42.2408 39.4945 41.9969 39.7653 41.9969 39.7653L40.2286 41.5235C39.0497 42.7017 40.8181 44.4691 41.9969 43.2909L43.756 41.5235C43.756 41.5235 44.3973 40.917 44.723 39.9402C45.0488 38.9635 44.9323 37.4155 43.756 36.2399C42.5797 35.0642 41.0309 34.9477 40.0536 35.2733C39.0764 35.5989 38.4695 36.2399 38.4695 36.2399C38.4695 36.2399 38.1985 36.4835 37.8525 36.5988C37.5064 36.7141 37.2894 36.8277 36.7012 36.2399C36.113 35.652 36.2267 35.4351 36.342 35.0893C36.4574 34.7434 36.7012 34.4725 36.7012 34.4725L38.4695 32.7052C39.2782 31.91 38.6917 30.5362 37.5577 30.5696Z" fill="white"/>
<path d="M33.923 30.5697C32.8666 30.6746 32.4155 31.966 33.1769 32.7053L34.936 34.4726L36.7043 32.7053L34.936 30.9471C34.6732 30.674 34.3004 30.5351 33.923 30.5697ZM42.0001 41.5236L43.7592 43.291C44.938 44.4692 46.7063 42.7018 45.5274 41.5236L43.7592 39.7654L42.0001 41.5236Z" fill="white"/>
<path d="M30.525 28.2988C25.6632 33.158 25.6632 41.0786 30.525 45.9379C35.387 50.7972 43.3117 50.7972 48.1737 45.9379C53.0355 41.0786 53.0355 33.158 48.1737 28.2988C43.3117 23.4395 35.387 23.4395 30.525 28.2988ZM32.2899 30.0627C36.1983 26.1564 42.5005 26.1564 46.4088 30.0627C50.3171 33.9688 50.3171 40.2677 46.4088 44.174C42.5005 48.0801 36.1983 48.0801 32.2899 44.174C28.3816 40.2677 28.3816 33.9688 32.2899 30.0627ZM1.94435 53.6285C1.30491 53.668 0.799378 54.1852 0.774695 54.8251L0.0010586 71.0443C-0.0279322 71.7547 0.542251 72.3455 1.25361 72.3422L43.7414 72.3465V69.8525L2.56141 69.8569L3.27058 54.9448C3.31373 54.1969 2.69224 53.5801 1.94435 53.6285ZM2.19302 49.9004C0.529094 49.9004 0.529094 52.395 2.19302 52.395C3.85694 52.395 3.85694 49.9004 2.19302 49.9004ZM8.23476 12.8412L2.89297 17.8118C2.65393 18.0344 2.51174 18.3418 2.49695 18.6679L1.13388 47.3507C1.05373 49.014 3.54962 49.1336 3.62976 47.4703L4.9652 19.2939L9.93858 14.6638L8.23476 12.8412ZM22.5101 0.000224762C21.8208 0.0127181 21.2723 0.581575 21.2852 1.27051V19.975C21.2852 21.6381 23.7811 21.6381 23.7811 19.975V1.27051C23.7944 0.563525 23.2175 -0.0130512 22.5101 0.000224762Z" fill="white"/>
</svg>
