<svg width="29" height="22" viewBox="0 0 29 22" fill="none" xmlns="http://www.w3.org/2000/svg">
<path d="M23.8598 21.4053C25.5743 21.049 26.8137 20.0174 27.6079 18.2955C27.9938 17.4643 28.1126 16.9076 28.12 15.9799C28.1274 14.3842 27.5856 13.1225 26.3981 12.0018C25.7079 11.3486 25.1884 11.0295 24.3571 10.7401C22.9841 10.265 21.4774 10.265 20.4087 10.7401C20.2231 10.8217 20.0747 10.8662 20.0747 10.8514C20.0747 10.8291 20.1415 10.4803 20.2231 10.0795C20.8466 7.01427 22.7466 4.47599 25.8563 2.55372C26.3091 2.27911 26.6802 2.03419 26.6802 2.01192C26.6802 1.97482 25.4407 0.149034 25.3368 0.0302837C25.3071 -0.00682572 24.8915 0.171299 24.4165 0.423643C19.3696 3.07325 16.1708 7.45216 15.8516 12.1354C15.629 15.4084 16.5716 18.1025 18.5977 19.9729C19.1841 20.5221 20.2899 21.1158 21.1137 21.3236C21.7669 21.4869 23.2438 21.5315 23.8598 21.4053Z" fill="#332920"/>
<path d="M7.71699 21.4649C9.23105 21.22 10.515 20.3888 11.3018 19.1493C12.0291 17.9989 12.2963 17.1157 12.2889 15.9059C12.2814 13.761 11.1162 11.913 9.20137 11.0001C7.73184 10.295 5.83183 10.1911 4.57754 10.7477L4.25098 10.8962L4.30293 10.5399C4.46621 9.41922 4.9709 7.97938 5.53496 6.99227C6.51465 5.28524 8.19941 3.63758 10.1736 2.45751C10.5596 2.23485 10.8713 2.03446 10.8713 2.01961C10.8713 2.00477 9.66894 0.245786 9.49082 0.000864567C9.4834 -0.0139792 9.10488 0.164146 8.65957 0.394224C4.11738 2.71727 1.02988 6.50985 0.176366 10.8294C-0.0388689 11.913 -0.0611343 13.9614 0.131834 15.0227C0.436131 16.7149 1.00019 17.9321 2.11347 19.3126C2.85566 20.2329 3.96152 20.9454 5.17129 21.2868C5.70566 21.4427 7.20488 21.5466 7.71699 21.4649Z" fill="#332920"/>
</svg>
